<svg width="13" height="13" viewBox="0 0 13 13" fill="none" xmlns="http://www.w3.org/2000/svg">
<path fill-rule="evenodd" clip-rule="evenodd" d="M11.9164 4.875C11.9166 3.62378 11.9167 2.71053 11.9167 2.71053C11.9167 2.71015 11.2695 2.70983 10.2917 2.70955V3.24841C10.2917 3.54844 10.0512 3.79167 9.75 3.79167C9.45085 3.79167 9.20833 3.54871 9.20833 3.24841V2.70929C7.55388 2.70895 5.44563 2.70871 3.79167 2.70855V3.24841C3.79167 3.54844 3.55124 3.79167 3.25 3.79167C2.95085 3.79167 2.70833 3.54871 2.70833 3.24841V2.70845C1.73195 2.70837 1.08601 2.70833 1.08601 2.70833C1.08546 2.70833 1.08499 3.62265 1.0846 4.875H11.9164ZM11.9162 5.95833H1.08431C1.08367 8.60812 1.08333 11.9145 1.08333 11.9145C1.08333 11.916 11.914 11.9167 11.914 11.9167C11.915 11.9167 11.9158 8.60849 11.9162 5.95833ZM10.2917 1.625H11.914C12.5138 1.625 13 2.11013 13 2.71053V11.9145C13 12.514 12.5141 13 11.914 13H1.08601C0.486225 13 0 12.5149 0 11.9145V2.71053C0 2.11101 0.485889 1.625 1.08601 1.625H2.70833V0.543253C2.70833 0.243223 2.94876 0 3.25 0C3.54915 0 3.79167 0.242954 3.79167 0.543253V1.625H9.20833V0.543253C9.20833 0.243223 9.44876 0 9.75 0C10.0492 0 10.2917 0.242954 10.2917 0.543253V1.625Z" fill="#7E8B9C"/>
</svg>
