<svg width="8" height="8" viewBox="0 0 8 8" fill="none" xmlns="http://www.w3.org/2000/svg">
<path d="M0.221813 1.34835C-0.0222645 1.10427 -0.0222646 0.708544 0.221813 0.464466C0.465891 0.220388 0.861619 0.220388 1.1057 0.464466L7.29288 6.65165C7.53696 6.89573 7.53696 7.29146 7.29288 7.53553C7.0488 7.77961 6.65307 7.77961 6.409 7.53553L0.221813 1.34835Z" fill="#B2B9C4"/>
<path d="M6.409 0.464466C6.65307 0.220389 7.0488 0.220388 7.29288 0.464466C7.53696 0.708544 7.53696 1.10427 7.29288 1.34835L1.1057 7.53553C0.861619 7.77961 0.465891 7.77961 0.221813 7.53553C-0.0222646 7.29146 -0.0222649 6.89573 0.221813 6.65165L6.409 0.464466Z" fill="#B2B9C4"/>
</svg>
