<svg width="13" height="13" viewBox="0 0 13 13" fill="none" xmlns="http://www.w3.org/2000/svg">
<path d="M6.00272 9.98097L7.49456 10.4783L6.00272 11.9701C4.62951 13.3433 2.40311 13.3433 1.0299 11.9701C-0.343301 10.5969 -0.343301 8.37049 1.0299 6.99728L3.01903 5.00815C4.39223 3.63495 6.61864 3.63495 7.99184 5.00815L8.48913 5.50544L7.49456 6.5L6.99728 6.00272C6.17336 5.17879 4.83751 5.17879 4.01359 6.00272L2.02447 7.99184C1.20054 8.81577 1.20054 10.1516 2.02447 10.9755C2.84839 11.7995 4.18423 11.7995 5.00815 10.9755L6.00272 9.98097ZM6.99728 3.01903L5.50544 2.52175L6.99728 1.0299C8.37049 -0.343301 10.5969 -0.343301 11.9701 1.0299C13.3433 2.40311 13.3433 4.62951 11.9701 6.00272L9.98097 7.99184C8.60776 9.36505 6.38136 9.36505 5.00815 7.99184L4.51087 7.49456L5.50544 6.5L6.00272 6.99728C6.82664 7.8212 8.16248 7.8212 8.98641 6.99728L10.9755 5.00815C11.7995 4.18423 11.7995 2.84839 10.9755 2.02447C10.1516 1.20054 8.81577 1.20054 7.99184 2.02447L6.99728 3.01903Z" fill="#7E8B9C"/>
</svg>
