<svg width="14" height="16" viewBox="0 0 14 16" fill="none" xmlns="http://www.w3.org/2000/svg">
<path d="M6.66122 16C6.66122 16 0 10.351 0 6.66122C0 2.98775 2.97143 0 6.66122 0C10.351 0 13.3224 2.98775 13.3224 6.66122C13.3224 10.351 6.66122 16 6.66122 16ZM6.66122 1.33878C3.72245 1.33878 1.32245 3.72245 1.32245 6.67755C1.32245 9.61633 6.66122 14.0082 6.66122 14.0082C6.66122 14.0082 12 9.61633 12 6.67755C12 3.72245 9.6 1.33878 6.66122 1.33878ZM6.66122 9.33878C5.19184 9.33878 4 8.14694 4 6.67755C4 5.20816 5.19184 4 6.66122 4C8.13061 4 9.32245 5.19184 9.32245 6.66122C9.32245 8.13061 8.13061 9.33878 6.66122 9.33878ZM6.66122 5.33878C5.92653 5.33878 5.32245 5.94286 5.32245 6.67755C5.32245 7.41224 5.92653 8 6.66122 8C7.39592 8 8 7.39592 8 6.66122C8 5.92653 7.39592 5.33878 6.66122 5.33878Z" fill="#7E8B9C"/>
</svg>
