<svg width="24" height="19" viewBox="0 0 24 19" fill="none" xmlns="http://www.w3.org/2000/svg">
<path d="M21.8203 4.69144C21.3024 1.99993 18.9061 0 16.154 0C14.6999 0 13.2994 0.551028 12.2185 1.54426C12.2027 1.55954 12.2027 1.55954 12.1926 1.5697L12.1519 1.61037L12.1177 1.64917L0.187702 17.0769L0.171036 17.1001C-0.112126 17.5248 -0.0418583 18.0869 0.368197 18.4059C0.547244 18.5402 0.738486 18.6 0.943254 18.6C1.23833 18.6 1.52453 18.4549 1.68382 18.2095L13.5246 2.8813C14.264 2.22718 15.1882 1.87085 16.154 1.87085C18.0799 1.87085 19.7392 3.30888 20.0362 5.21423L20.0394 5.23405C20.0415 5.24701 20.0415 5.24701 20.0442 5.26255C20.0711 5.41407 20.1299 5.54926 20.2619 5.72099H19.4348C18.9733 5.72099 18.5827 6.04562 18.519 6.48844C18.476 6.67975 18.4887 6.86735 18.5725 7.04709C18.8414 7.7623 18.9739 8.54442 18.9739 9.38134C18.9739 13.0882 15.9565 16.1055 12.2497 16.1055C11.3968 16.1055 10.5589 15.9456 9.7819 15.6376L15.7521 7.34135C16.0394 6.91078 15.952 6.34217 15.5575 6.04636C15.1205 5.75425 14.5519 5.84173 14.2561 6.23615L7.63595 15.4066C7.3545 15.8282 7.43208 16.3815 7.8048 16.6823C7.82839 16.7054 7.84462 16.7197 7.87081 16.7393C7.91181 16.7701 7.95571 16.7954 8.00477 16.8127C9.3079 17.5383 10.7694 17.9222 12.2497 17.9222C16.9843 17.9222 20.8447 14.0706 20.8447 9.32711C20.8447 8.74677 20.7801 8.15585 20.6555 7.56472H22.5529C22.93 7.56472 23.2682 7.33474 23.4147 6.99286C23.5663 6.63921 23.467 6.2343 23.173 5.98406C22.6615 5.52108 22.0785 4.96313 21.8203 4.69144Z" fill="#2582FF"/>
</svg>
