<svg width="15" height="18" viewBox="0 0 15 18" fill="none" xmlns="http://www.w3.org/2000/svg">
<path d="M14.238 1.32632H10.2273V1.28842C10.2273 0.568421 9.62567 0 8.86363 0H6.13636C5.37433 0 4.77273 0.568421 4.77273 1.28842V1.32632H0.762032C0.340909 1.32632 0 1.64842 0 2.04632V2.76632C0 3.16421 0.340909 3.48632 0.762032 3.48632H14.238C14.6591 3.48632 15 3.16421 15 2.76632V2.04632C15 1.64842 14.6591 1.32632 14.238 1.32632Z" fill="white"/>
<path d="M13.2353 4.47158H1.76471C1.54412 4.47158 1.38369 4.64211 1.40374 4.85053L1.96524 15.8211C2.0254 17.0337 3.08823 18 4.37166 18H10.6083C11.8917 18 12.9545 17.0526 13.0147 15.8211L13.5762 4.85053C13.6163 4.66105 13.4358 4.47158 13.2353 4.47158Z" fill="white"/>
</svg>
